<svg t="1624334344173" class="icon" viewBox="0 0 1024 1024" version="1.1" xmlns="http://www.w3.org/2000/svg" p-id="2711" width="200" height="200"><path d="M95.987371 56.671652C187.873324 56.466854 279.759277 56.671652 371.576965 56.53512a64.511312 64.511312 0 0 1 65.5353 64.306514v272.79069a64.71611 64.71611 0 0 1-64.443045 65.125705H98.922806a64.852642 64.852642 0 0 1-64.03345-66.21796V121.933889A64.784376 64.784376 0 0 1 95.987371 56.671652zM84.040832 558.972427c9.4207-2.52584 19.182729-1.84318 28.808226-1.911446h260.912417a64.852642 64.852642 0 0 1 59.732696 43.280605c4.778616 12.492667 3.481563 26.077589 3.618094 39.116382v255.519408a64.852642 64.852642 0 0 1-30.992736 54.817549 72.839756 72.839756 0 0 1-31.061002 9.830295H97.762285a76.457851 76.457851 0 0 1-25.87279-6.55353 64.989173 64.989173 0 0 1-37.000139-62.463334v-260.775885c-0.136532-9.07937 0-18.227006 2.798903-26.89678a64.920908 64.920908 0 0 1 46.352573-43.963264z m446.664035 18.431803a64.647844 64.647844 0 0 1 46.830434-20.343249h271.698435a64.852642 64.852642 0 0 1 65.944897 60.824951c0.34133 16.179027 0 32.289789 0.136532 48.468816v216.676089c0 9.557231 0.409596 19.114463-2.252776 28.39863a64.989173 64.989173 0 0 1-42.52968 44.71419c-5.461275 1.911446-11.26388 2.389308-16.861687 3.413297H576.169982c-6.007403-0.819191-12.151337-1.365319-17.953942-3.345031a64.852642 64.852642 0 0 1-43.007541-45.055519c-2.867169-10.239891-1.979712-20.889377-2.047978-31.334066V622.186686a64.647844 64.647844 0 0 1 17.544346-44.782456zM707.035786 0.420518c19.114463-2.252776 38.911585 4.642084 52.564773 18.227006 63.487323 63.350791 126.838114 126.838114 190.257171 190.25717a64.920908 64.920908 0 0 1 0.887457 96.596303L762.60426 493.573658a64.989173 64.989173 0 0 1-81.919126 12.287869c-8.191913-4.778616-14.404113-11.946539-21.162441-18.568335L475.682521 303.521285a64.647844 64.647844 0 0 1 2.047978-93.797399L668.533797 18.920588a64.443046 64.443046 0 0 1 38.501989-18.431804z" fill="#768099" p-id="2712"></path></svg>