<?xml version="1.0" encoding="UTF-8"?>
<svg width="50px" height="50px" viewBox="0 0 50 50" version="1.1" xmlns="http://www.w3.org/2000/svg" xmlns:xlink="http://www.w3.org/1999/xlink">
    <title>虹膜登录icon</title>
    <g id="页面-1" stroke="none" stroke-width="1" fill="none" fill-rule="evenodd">
        <g id="画板备份-2" transform="translate(-743.000000, -580.000000)" stroke="#979797">
            <g id="虹膜登录icon" transform="translate(743.000000, 580.000000)">
                <path d="M25.0792792,28.6821355 L25.5677468,37.342184 C25.5752995,37.3762388 25.5792792,37.4242647 25.5792792,37.4897547 L25.5792792,37.5433386 C25.5625563,38.0099951 25.3451518,38.3791052 25.0792792,38.3791052 C24.8261487,38.3791052 24.6169519,38.0445269 24.5838436,37.6104343 L24.5812792,37.5441052 L24.5792792,37.5433386 L24.5798274,37.5204385 L24.5792792,37.4897547 C24.5792792,37.4279618 24.5828223,37.3817167 24.5895667,37.3480855 L25.0792792,28.6821355 Z M26.3547053,28.462836 L29.7756257,36.4335538 C29.7943703,36.4629717 29.8145359,36.5067402 29.8369347,36.5682806 C29.8408684,36.5790884 29.8446693,36.5898901 29.8483382,36.6006816 L29.8552615,36.618633 C29.9991531,37.0628663 29.9211028,37.484073 29.6712642,37.5750068 C29.4333993,37.6615826 29.1223862,37.4187313 28.9428061,37.0221414 L28.9168274,36.9604385 L28.9155689,36.9606531 L28.9098274,36.9434385 L28.8972421,36.9103008 L28.8972421,36.9103008 C28.8761077,36.8522344 28.8636203,36.8075665 28.8584555,36.7736568 L26.3547053,28.462836 Z M23.8038532,28.462836 L21.3009516,36.7676854 C21.2964014,36.8022696 21.2837152,36.8487604 21.2613163,36.9103008 C21.2573826,36.9211085 21.253351,36.9318263 21.249225,36.9424513 L21.2429896,36.9606531 C21.0676693,37.3934473 20.7371328,37.6659406 20.4872942,37.5750068 C20.2494293,37.4884311 20.1672812,37.1024808 20.284638,36.6832435 L20.3038274,36.6194385 L20.3032969,36.618633 L20.3088274,36.6034385 L20.3216237,36.5682806 L20.3216237,36.5682806 C20.3427581,36.5102143 20.3619042,36.4679699 20.3797445,36.4386737 L23.8038532,28.462836 Z M27.4762961,27.831388 L33.4170558,34.1513891 C33.4447315,34.1726218 33.4786507,34.2068537 33.5207468,34.257022 C33.5281397,34.2658325 33.5354058,34.2746829 33.5425443,34.2835687 L33.5551898,34.2980696 C33.8423404,34.6662985 33.9130583,35.0887982 33.7093881,35.2596978 C33.5170814,35.4210622 33.1463532,35.3025686 32.8433315,34.9969997 L32.7908274,34.9394385 L32.7891454,34.9408572 L32.7748274,34.9224385 L32.7547024,34.8998096 C32.7149826,34.8524734 32.687971,34.8147702 32.6715199,34.784672 L27.4762961,27.831388 Z M22.6822624,27.831388 L17.4898784,34.779351 C17.4737741,34.8102932 17.4459522,34.8496414 17.4038561,34.8998096 C17.3964632,34.9086201 17.389009,34.9173127 17.3814978,34.9258857 L17.369413,34.9408572 C17.0566415,35.2875876 16.6528406,35.4305974 16.4491704,35.2596978 C16.2568637,35.0983333 16.3091809,34.7126611 16.5574883,34.3611816 L16.6044079,34.2999424 L16.6033686,34.2980696 L16.6178274,34.2814385 L16.6378116,34.257022 L16.6378116,34.257022 C16.6775314,34.2096858 16.7099713,34.1765375 16.7367555,34.1551098 L22.6822624,27.831388 Z M28.3087713,26.8639537 L36.0528271,30.7709526 C36.0860957,30.7814391 36.1296773,30.8020056 36.1863933,30.8347506 C36.1963537,30.8405013 36.2062086,30.8463327 36.2159557,30.8522411 L36.2327983,30.8615425 C36.6285732,31.1093532 36.8395297,31.4821861 36.7065934,31.7124385 C36.5810741,31.9298443 36.1921764,31.9452932 35.8029184,31.7617919 L35.7338274,31.7254385 L35.7327983,31.7275679 L35.7140436,31.7155852 L35.7068274,31.7114385 L35.6863933,31.700776 C35.632879,31.6698795 35.5946012,31.6436886 35.5688479,31.6210321 L28.3087713,26.8639537 Z M21.8497871,26.8639537 L14.594199,31.6170033 C14.568483,31.6405715 14.5288811,31.668031 14.4721652,31.700776 C14.4622047,31.7065267 14.4522271,31.7121455 14.4422367,31.7176326 L14.4257602,31.7275679 C14.0132623,31.9464137 13.5849013,31.942691 13.451965,31.7124385 C13.3264458,31.4950328 13.5075155,31.150513 13.8610613,30.9051564 L13.9260962,30.8636579 L13.9257602,30.8615425 L13.9455148,30.8512919 L13.9721652,30.8347506 C14.0256794,30.8038541 14.0675003,30.7838 14.099998,30.7728253 L21.8497871,26.8639537 Z M28.7517221,25.6772198 L37.3650265,26.6999747 C37.3998754,26.6984503 37.4478629,26.7028707 37.5123579,26.7142429 C37.5236845,26.7162401 37.5349396,26.7183493 37.5461196,26.7205677 L37.5651277,26.7235477 C38.0217907,26.8210506 38.3475414,27.0992475 38.3013731,27.3610809 C38.2534214,27.6330281 37.8224224,27.7843423 37.3387097,27.6990507 C37.2778555,27.6883205 37.2329283,27.6768009 37.2009792,27.6643189 L28.7517221,25.6772198 Z M21.4068363,25.6772198 L12.9631749,27.6620681 C12.930949,27.6754196 12.8843438,27.6876785 12.8198487,27.6990507 L12.7859599,27.7046545 L12.7859599,27.7046545 L12.7670789,27.7083554 C12.3046081,27.7729207 11.9033537,27.6229143 11.8571854,27.3610809 C11.8132297,27.111796 12.1063984,26.8476785 12.528147,26.7396938 L12.5928274,26.7254385 L12.5934308,26.7235477 L12.6128274,26.7204385 L12.6462006,26.7142429 L12.6462006,26.7142429 C12.7070547,26.7035127 12.7532125,26.6989716 12.7875039,26.6997736 L21.4068363,25.6772198 Z M38.3013731,22.7304628 C38.3493247,23.00241 37.9960705,23.2920092 37.5123579,23.3773008 C37.4515037,23.388031 37.405346,23.3925722 37.3710546,23.3917702 L28.7517221,24.414324 L37.1953835,22.4294756 C37.2276094,22.4161241 37.2742147,22.4038653 37.3387097,22.3924931 L37.3725986,22.3868892 L37.3725986,22.3868892 L37.3914795,22.3831883 C37.8539504,22.3186231 38.2552048,22.4686294 38.3013731,22.7304628 Z M12.8198487,22.3924931 C12.8807029,22.4032233 12.9256301,22.4147429 12.9575792,22.4272249 L21.4068363,24.414324 L12.7935319,23.391569 C12.758683,23.3930934 12.7106956,23.388673 12.6462006,23.3773008 L12.6124388,23.370976 L12.6124388,23.370976 L12.5934308,23.3679961 C12.1367677,23.2704932 11.8110171,22.9922963 11.8571854,22.7304628 C11.905137,22.4585157 12.3361361,22.3072015 12.8198487,22.3924931 Z M36.7065934,18.3791052 C36.8321127,18.5965109 36.6510429,18.9410307 36.2974972,19.1863873 L36.2128274,19.2394385 L36.1863933,19.2567932 C36.132879,19.2876896 36.0910581,19.3077438 36.0585604,19.3187185 L28.3087713,23.2275901 L35.5643595,18.4745405 C35.5900754,18.4509722 35.6296773,18.4235127 35.6863933,18.3907678 C35.6963537,18.3850171 35.7063314,18.3793982 35.7163218,18.3739112 L35.7327983,18.3639758 C36.1452961,18.14513 36.5736571,18.1488528 36.7065934,18.3791052 Z M14.4721652,18.3907678 C14.5256794,18.4216642 14.5639573,18.4478551 14.5897105,18.4705116 L21.8497871,23.2275901 L14.1057313,19.3205912 C14.0724627,19.3101046 14.0288811,19.2895381 13.9721652,19.2567932 L13.9426027,19.2393026 L13.9426027,19.2393026 L13.9257602,19.2300012 C13.5299852,18.9821905 13.3190287,18.6093577 13.451965,18.3791052 C13.5900362,18.1399589 14.0467954,18.1451804 14.4721652,18.3907678 Z M33.7093881,14.831846 C33.9016947,14.9932104 33.8493775,15.3788826 33.6010701,15.7303622 L33.5518274,15.7934385 L33.5541505,15.7916013 L33.5551898,15.7934742 L33.5398274,15.8094385 L33.5207468,15.8345218 L33.5207468,15.8345218 C33.4810271,15.8818579 33.4485872,15.9150063 33.4218029,15.936434 L27.4762961,22.2601557 L32.66868,15.3121928 C32.6847843,15.2812505 32.7126062,15.2419024 32.7547024,15.1917342 C32.7620953,15.1829236 32.7695494,15.1742311 32.7770606,15.165658 L32.7891454,15.1506866 C33.1019169,14.8039562 33.5057178,14.6609463 33.7093881,14.831846 Z M17.3152269,15.094544 L17.3818274,15.1674385 L17.3673882,15.1513849 L17.369413,15.1506866 L17.3829383,15.1683611 L17.4038561,15.1917342 C17.4435758,15.2390703 17.4705874,15.2767735 17.4870386,15.3068718 L22.6822624,22.2601557 L16.7415026,15.9401546 C16.7138269,15.9189219 16.6799078,15.88469 16.6378116,15.8345218 C16.6304187,15.8257113 16.6231526,15.8168609 16.6160141,15.8079751 L16.6033686,15.7934742 C16.316218,15.4252453 16.2455001,15.0027456 16.4491704,14.831846 C16.641477,14.6704815 17.0122052,14.7889752 17.3152269,15.094544 Z M29.6712642,12.5165369 C29.9091291,12.6031127 29.9912773,12.9890629 29.8739205,13.4083003 L29.8536443,13.4715063 L29.8552615,13.4729108 L29.8468274,13.4904385 L29.8458274,13.4924385 L29.8458274,13.4934385 L29.8369347,13.5232631 C29.8158003,13.5813295 29.7966542,13.6235738 29.7788139,13.6528701 L26.3547053,21.6287078 L28.8576069,13.3238584 C28.8621571,13.2892742 28.8748432,13.2427834 28.8972421,13.181243 L28.9093335,13.1490924 L28.9093335,13.1490924 L28.9155689,13.1308906 C29.0908892,12.6980965 29.4214257,12.4256031 29.6712642,12.5165369 Z M21.2157523,13.0694024 L21.2488274,13.1504385 L21.2488274,13.1514385 L21.2613163,13.181243 C21.2824507,13.2393093 21.2949381,13.2839773 21.3001029,13.317887 L23.8038532,21.6287078 L20.3829327,13.6579899 C20.3641881,13.6285721 20.3440226,13.5848035 20.3216237,13.5232631 C20.31769,13.5124554 20.3138891,13.5016536 20.3102202,13.4908622 L20.3032969,13.4729108 C20.1594054,13.0286775 20.2374557,12.6074707 20.4872942,12.5165369 C20.7251591,12.4299612 21.0361723,12.6728124 21.2157523,13.0694024 Z M25.0792792,11.7124385 C25.3324097,11.7124385 25.5416065,12.0470168 25.5747148,12.4811095 L25.5768274,12.5474385 L25.5772792,12.5474385 L25.5792792,12.5482052 L25.5778274,12.5694385 L25.5792792,12.6017891 C25.5792792,12.663582 25.5757362,12.709827 25.5689917,12.7434582 L25.0792792,21.4094082 L24.5908116,12.7493598 C24.5832589,12.715305 24.5792792,12.667279 24.5792792,12.6017891 L24.5792792,12.5482052 C24.5960021,12.0815487 24.8134066,11.7124385 25.0792792,11.7124385 Z" id="形状结合" stroke-width="1.5" fill="#D8D8D8" transform="translate(25.079279, 25.045772) rotate(30.000000) translate(-25.079279, -25.045772) "></path>
                <circle id="椭圆形备份-2" opacity="0" cx="25" cy="25" r="25"></circle>
            </g>
        </g>
    </g>
</svg>